<mxfile host="Electron" modified="2023-11-26T12:17:47.903Z" agent="Mozilla/5.0 (Windows NT 10.0; Win64; x64) AppleWebKit/537.36 (KHTML, like Gecko) draw.io/22.0.3 Chrome/114.0.5735.289 Electron/25.8.4 Safari/537.36" etag="O9jNhK1C6ONVVinerO6I" version="22.0.3" type="device">
  <diagram name="第 1 页" id="MBvoRzFgpBZ0iUY8DBcw">
    <mxGraphModel dx="1363" dy="950" grid="1" gridSize="10" guides="1" tooltips="1" connect="1" arrows="1" fold="1" page="1" pageScale="1" pageWidth="1654" pageHeight="1169" math="0" shadow="1">
      <root>
        <mxCell id="0" />
        <mxCell id="1" parent="0" />
        <mxCell id="y5HsujabP5YIAo2JEt3h-36" style="edgeStyle=orthogonalEdgeStyle;rounded=0;orthogonalLoop=1;jettySize=auto;html=1;exitX=0.5;exitY=1;exitDx=0;exitDy=0;entryX=0.5;entryY=0;entryDx=0;entryDy=0;fontSize=15;" edge="1" parent="1" source="y5HsujabP5YIAo2JEt3h-1" target="y5HsujabP5YIAo2JEt3h-3">
          <mxGeometry relative="1" as="geometry" />
        </mxCell>
        <mxCell id="y5HsujabP5YIAo2JEt3h-38" style="edgeStyle=orthogonalEdgeStyle;rounded=0;orthogonalLoop=1;jettySize=auto;html=1;exitX=0.5;exitY=1;exitDx=0;exitDy=0;entryX=0.5;entryY=0;entryDx=0;entryDy=0;fontSize=15;" edge="1" parent="1" source="y5HsujabP5YIAo2JEt3h-1" target="y5HsujabP5YIAo2JEt3h-4">
          <mxGeometry relative="1" as="geometry" />
        </mxCell>
        <mxCell id="y5HsujabP5YIAo2JEt3h-39" style="edgeStyle=orthogonalEdgeStyle;rounded=0;orthogonalLoop=1;jettySize=auto;html=1;exitX=0.5;exitY=1;exitDx=0;exitDy=0;entryX=0.5;entryY=0;entryDx=0;entryDy=0;fontSize=15;" edge="1" parent="1" source="y5HsujabP5YIAo2JEt3h-1" target="y5HsujabP5YIAo2JEt3h-2">
          <mxGeometry relative="1" as="geometry" />
        </mxCell>
        <mxCell id="y5HsujabP5YIAo2JEt3h-1" value="攒局旅游系统" style="rounded=0;whiteSpace=wrap;html=1;fontSize=15;" vertex="1" parent="1">
          <mxGeometry x="767" y="340" width="120" height="60" as="geometry" />
        </mxCell>
        <mxCell id="y5HsujabP5YIAo2JEt3h-50" style="edgeStyle=orthogonalEdgeStyle;rounded=0;orthogonalLoop=1;jettySize=auto;html=1;exitX=0.5;exitY=1;exitDx=0;exitDy=0;entryX=0.5;entryY=0;entryDx=0;entryDy=0;fontSize=15;" edge="1" parent="1" source="y5HsujabP5YIAo2JEt3h-2" target="y5HsujabP5YIAo2JEt3h-49">
          <mxGeometry relative="1" as="geometry" />
        </mxCell>
        <mxCell id="y5HsujabP5YIAo2JEt3h-51" style="edgeStyle=orthogonalEdgeStyle;rounded=0;orthogonalLoop=1;jettySize=auto;html=1;exitX=0.5;exitY=1;exitDx=0;exitDy=0;fontSize=15;" edge="1" parent="1" source="y5HsujabP5YIAo2JEt3h-2" target="y5HsujabP5YIAo2JEt3h-48">
          <mxGeometry relative="1" as="geometry" />
        </mxCell>
        <mxCell id="y5HsujabP5YIAo2JEt3h-52" style="edgeStyle=orthogonalEdgeStyle;rounded=0;orthogonalLoop=1;jettySize=auto;html=1;exitX=0.5;exitY=1;exitDx=0;exitDy=0;entryX=0.5;entryY=0;entryDx=0;entryDy=0;fontSize=15;" edge="1" parent="1" source="y5HsujabP5YIAo2JEt3h-2" target="y5HsujabP5YIAo2JEt3h-47">
          <mxGeometry relative="1" as="geometry" />
        </mxCell>
        <mxCell id="y5HsujabP5YIAo2JEt3h-2" value="3 个人中心模块" style="rounded=0;whiteSpace=wrap;html=1;fontSize=15;" vertex="1" parent="1">
          <mxGeometry x="1222" y="470" width="120" height="60" as="geometry" />
        </mxCell>
        <mxCell id="y5HsujabP5YIAo2JEt3h-34" style="edgeStyle=orthogonalEdgeStyle;rounded=0;orthogonalLoop=1;jettySize=auto;html=1;exitX=0.5;exitY=1;exitDx=0;exitDy=0;entryX=0.5;entryY=0;entryDx=0;entryDy=0;fontSize=15;" edge="1" parent="1" source="y5HsujabP5YIAo2JEt3h-3" target="y5HsujabP5YIAo2JEt3h-17">
          <mxGeometry relative="1" as="geometry" />
        </mxCell>
        <mxCell id="y5HsujabP5YIAo2JEt3h-35" style="edgeStyle=orthogonalEdgeStyle;rounded=0;orthogonalLoop=1;jettySize=auto;html=1;exitX=0.5;exitY=1;exitDx=0;exitDy=0;entryX=0.5;entryY=0;entryDx=0;entryDy=0;fontSize=15;" edge="1" parent="1" source="y5HsujabP5YIAo2JEt3h-3" target="y5HsujabP5YIAo2JEt3h-20">
          <mxGeometry relative="1" as="geometry" />
        </mxCell>
        <mxCell id="y5HsujabP5YIAo2JEt3h-37" style="edgeStyle=orthogonalEdgeStyle;rounded=0;orthogonalLoop=1;jettySize=auto;html=1;exitX=0.5;exitY=1;exitDx=0;exitDy=0;entryX=0.5;entryY=0;entryDx=0;entryDy=0;fontSize=15;" edge="1" parent="1" source="y5HsujabP5YIAo2JEt3h-3" target="y5HsujabP5YIAo2JEt3h-19">
          <mxGeometry relative="1" as="geometry" />
        </mxCell>
        <mxCell id="y5HsujabP5YIAo2JEt3h-42" style="edgeStyle=orthogonalEdgeStyle;rounded=0;orthogonalLoop=1;jettySize=auto;html=1;exitX=0.5;exitY=1;exitDx=0;exitDy=0;entryX=0.5;entryY=0;entryDx=0;entryDy=0;fontSize=15;" edge="1" parent="1" source="y5HsujabP5YIAo2JEt3h-3" target="y5HsujabP5YIAo2JEt3h-21">
          <mxGeometry relative="1" as="geometry" />
        </mxCell>
        <mxCell id="y5HsujabP5YIAo2JEt3h-3" value="2 攒局帖子模块" style="rounded=0;whiteSpace=wrap;html=1;fontSize=15;" vertex="1" parent="1">
          <mxGeometry x="767" y="461" width="120" height="60" as="geometry" />
        </mxCell>
        <mxCell id="y5HsujabP5YIAo2JEt3h-27" style="edgeStyle=orthogonalEdgeStyle;rounded=0;orthogonalLoop=1;jettySize=auto;html=1;exitX=0.5;exitY=1;exitDx=0;exitDy=0;entryX=0.5;entryY=0;entryDx=0;entryDy=0;fontSize=15;" edge="1" parent="1" source="y5HsujabP5YIAo2JEt3h-4" target="y5HsujabP5YIAo2JEt3h-10">
          <mxGeometry relative="1" as="geometry" />
        </mxCell>
        <mxCell id="y5HsujabP5YIAo2JEt3h-32" style="edgeStyle=orthogonalEdgeStyle;rounded=0;orthogonalLoop=1;jettySize=auto;html=1;exitX=0.5;exitY=1;exitDx=0;exitDy=0;fontSize=15;" edge="1" parent="1" source="y5HsujabP5YIAo2JEt3h-4" target="y5HsujabP5YIAo2JEt3h-11">
          <mxGeometry relative="1" as="geometry" />
        </mxCell>
        <mxCell id="y5HsujabP5YIAo2JEt3h-33" style="edgeStyle=orthogonalEdgeStyle;rounded=0;orthogonalLoop=1;jettySize=auto;html=1;exitX=0.5;exitY=1;exitDx=0;exitDy=0;fontSize=15;" edge="1" parent="1" source="y5HsujabP5YIAo2JEt3h-4" target="y5HsujabP5YIAo2JEt3h-18">
          <mxGeometry relative="1" as="geometry" />
        </mxCell>
        <mxCell id="y5HsujabP5YIAo2JEt3h-4" value="1 好友聊天模块" style="rounded=0;whiteSpace=wrap;html=1;fontSize=15;" vertex="1" parent="1">
          <mxGeometry x="312" y="469" width="120" height="61" as="geometry" />
        </mxCell>
        <mxCell id="y5HsujabP5YIAo2JEt3h-12" style="edgeStyle=orthogonalEdgeStyle;rounded=0;orthogonalLoop=1;jettySize=auto;html=1;fontSize=15;" edge="1" parent="1" source="y5HsujabP5YIAo2JEt3h-10">
          <mxGeometry relative="1" as="geometry">
            <mxPoint x="252" y="730" as="targetPoint" />
          </mxGeometry>
        </mxCell>
        <mxCell id="y5HsujabP5YIAo2JEt3h-10" value="1.1 搜索用户id" style="rounded=0;whiteSpace=wrap;html=1;fontSize=15;" vertex="1" parent="1">
          <mxGeometry x="202" y="630" width="100" height="60" as="geometry" />
        </mxCell>
        <mxCell id="y5HsujabP5YIAo2JEt3h-14" style="edgeStyle=orthogonalEdgeStyle;rounded=0;orthogonalLoop=1;jettySize=auto;html=1;fontSize=15;" edge="1" parent="1" source="y5HsujabP5YIAo2JEt3h-11">
          <mxGeometry relative="1" as="geometry">
            <mxPoint x="372" y="730" as="targetPoint" />
          </mxGeometry>
        </mxCell>
        <mxCell id="y5HsujabP5YIAo2JEt3h-11" value="1.2 进入好友聊天界面" style="rounded=0;whiteSpace=wrap;html=1;fontSize=15;" vertex="1" parent="1">
          <mxGeometry x="322" y="630" width="100" height="60" as="geometry" />
        </mxCell>
        <mxCell id="y5HsujabP5YIAo2JEt3h-13" value="1.1.1 添加用户为好友" style="rounded=0;whiteSpace=wrap;html=1;fontSize=15;" vertex="1" parent="1">
          <mxGeometry x="202" y="730" width="100" height="60" as="geometry" />
        </mxCell>
        <mxCell id="y5HsujabP5YIAo2JEt3h-15" value="1.2.1 发送和接收消息" style="rounded=0;whiteSpace=wrap;html=1;fontSize=15;" vertex="1" parent="1">
          <mxGeometry x="322" y="730" width="100" height="60" as="geometry" />
        </mxCell>
        <mxCell id="y5HsujabP5YIAo2JEt3h-41" style="edgeStyle=orthogonalEdgeStyle;rounded=0;orthogonalLoop=1;jettySize=auto;html=1;exitX=0.5;exitY=1;exitDx=0;exitDy=0;entryX=0.5;entryY=0;entryDx=0;entryDy=0;fontSize=15;" edge="1" parent="1" source="y5HsujabP5YIAo2JEt3h-17" target="y5HsujabP5YIAo2JEt3h-23">
          <mxGeometry relative="1" as="geometry" />
        </mxCell>
        <mxCell id="y5HsujabP5YIAo2JEt3h-17" value="2.2 搜索攒局标签" style="rounded=0;whiteSpace=wrap;html=1;fontSize=15;" vertex="1" parent="1">
          <mxGeometry x="716.5" y="630" width="100" height="60" as="geometry" />
        </mxCell>
        <mxCell id="y5HsujabP5YIAo2JEt3h-18" value="1.3 删除好友" style="rounded=0;whiteSpace=wrap;html=1;fontSize=15;" vertex="1" parent="1">
          <mxGeometry x="443" y="630" width="100" height="60" as="geometry" />
        </mxCell>
        <mxCell id="y5HsujabP5YIAo2JEt3h-19" value="2.1 发布攒局信息" style="rounded=0;whiteSpace=wrap;html=1;fontSize=15;" vertex="1" parent="1">
          <mxGeometry x="601.5" y="630" width="100" height="60" as="geometry" />
        </mxCell>
        <mxCell id="y5HsujabP5YIAo2JEt3h-44" style="edgeStyle=orthogonalEdgeStyle;rounded=0;orthogonalLoop=1;jettySize=auto;html=1;exitX=0.5;exitY=1;exitDx=0;exitDy=0;entryX=0.5;entryY=0;entryDx=0;entryDy=0;fontSize=15;" edge="1" parent="1" source="y5HsujabP5YIAo2JEt3h-20" target="y5HsujabP5YIAo2JEt3h-22">
          <mxGeometry relative="1" as="geometry" />
        </mxCell>
        <mxCell id="y5HsujabP5YIAo2JEt3h-20" value="2.3 参加攒局" style="rounded=0;whiteSpace=wrap;html=1;fontSize=15;" vertex="1" parent="1">
          <mxGeometry x="832.5" y="630" width="100" height="60" as="geometry" />
        </mxCell>
        <mxCell id="y5HsujabP5YIAo2JEt3h-21" value="2.4 点赞评论收藏" style="rounded=0;whiteSpace=wrap;html=1;fontSize=15;" vertex="1" parent="1">
          <mxGeometry x="952.5" y="630" width="100" height="60" as="geometry" />
        </mxCell>
        <mxCell id="y5HsujabP5YIAo2JEt3h-22" value="2.3.1 加入该局讨论群" style="rounded=0;whiteSpace=wrap;html=1;fontSize=15;" vertex="1" parent="1">
          <mxGeometry x="832.5" y="730" width="100" height="60" as="geometry" />
        </mxCell>
        <mxCell id="y5HsujabP5YIAo2JEt3h-23" value="2.2.1 显示相关攒局" style="rounded=0;whiteSpace=wrap;html=1;fontSize=15;" vertex="1" parent="1">
          <mxGeometry x="716.5" y="730" width="100" height="60" as="geometry" />
        </mxCell>
        <mxCell id="y5HsujabP5YIAo2JEt3h-45" value="3.2.1 退出攒局" style="rounded=0;whiteSpace=wrap;html=1;fontSize=15;" vertex="1" parent="1">
          <mxGeometry x="1232" y="730" width="100" height="60" as="geometry" />
        </mxCell>
        <mxCell id="y5HsujabP5YIAo2JEt3h-46" value="3.3.1 删除帖子、取消点赞收藏" style="rounded=0;whiteSpace=wrap;html=1;fontSize=15;" vertex="1" parent="1">
          <mxGeometry x="1347" y="730" width="118" height="60" as="geometry" />
        </mxCell>
        <mxCell id="y5HsujabP5YIAo2JEt3h-55" style="edgeStyle=orthogonalEdgeStyle;rounded=0;orthogonalLoop=1;jettySize=auto;html=1;exitX=0.5;exitY=1;exitDx=0;exitDy=0;entryX=0.5;entryY=0;entryDx=0;entryDy=0;" edge="1" parent="1" source="y5HsujabP5YIAo2JEt3h-47" target="y5HsujabP5YIAo2JEt3h-46">
          <mxGeometry relative="1" as="geometry" />
        </mxCell>
        <mxCell id="y5HsujabP5YIAo2JEt3h-47" value="3.3 我的点赞、收藏、发布" style="rounded=0;whiteSpace=wrap;html=1;fontSize=15;" vertex="1" parent="1">
          <mxGeometry x="1352" y="630" width="108" height="60" as="geometry" />
        </mxCell>
        <mxCell id="y5HsujabP5YIAo2JEt3h-53" style="edgeStyle=orthogonalEdgeStyle;rounded=0;orthogonalLoop=1;jettySize=auto;html=1;exitX=0.5;exitY=1;exitDx=0;exitDy=0;entryX=0.5;entryY=0;entryDx=0;entryDy=0;fontSize=15;" edge="1" parent="1" source="y5HsujabP5YIAo2JEt3h-48" target="y5HsujabP5YIAo2JEt3h-45">
          <mxGeometry relative="1" as="geometry" />
        </mxCell>
        <mxCell id="y5HsujabP5YIAo2JEt3h-48" value="3.2 我的攒局信息查看" style="rounded=0;whiteSpace=wrap;html=1;fontSize=15;" vertex="1" parent="1">
          <mxGeometry x="1233" y="630" width="100" height="60" as="geometry" />
        </mxCell>
        <mxCell id="y5HsujabP5YIAo2JEt3h-49" value="3.1 用户信息查看和修改" style="rounded=0;whiteSpace=wrap;html=1;fontSize=15;" vertex="1" parent="1">
          <mxGeometry x="1112" y="630" width="100" height="60" as="geometry" />
        </mxCell>
      </root>
    </mxGraphModel>
  </diagram>
</mxfile>
